<svg width="60" height="60" viewBox="0 0 60 60" fill="none" xmlns="http://www.w3.org/2000/svg">
<path d="M6.66699 1H53.333C56.4641 1 59 3.53594 59 6.66699V53.333C59 56.4641 56.4641 59 53.333 59H6.66699C3.53594 59 1 56.4641 1 53.333V6.66699C1 3.53594 3.53594 1 6.66699 1ZM10.5898 47.667H21V22.333H10.5898V47.667ZM25.9404 47.667H36.3496V33.9131C36.3497 32.2845 36.9155 31.506 37.4248 31.1074C37.9856 30.6686 38.6317 30.5732 38.877 30.5732C39.0199 30.5734 39.5103 30.6726 39.9658 31.1279C40.3915 31.5536 40.8603 32.3679 40.8604 33.9131V47.667H51V33.9131C51 30.1187 50.1581 27.2317 48.6572 25.2695C47.1337 23.2776 45 22.333 42.6729 22.333C39.8769 22.3331 37.8131 22.947 36.3496 24.0078V22.333H25.9404V47.667ZM15.9297 10.0566C14.3021 10.0567 12.9042 10.5473 11.9014 11.459C10.8927 12.3762 10.3604 13.6523 10.3604 15.0566C10.3604 16.4592 10.8915 17.7259 11.8506 18.6387C12.8079 19.5496 14.1356 20.0566 15.6465 20.0566C17.2744 20.0566 18.6729 19.5662 19.6758 18.6543C20.6845 17.7371 21.2168 16.461 21.2168 15.0566C21.2168 13.6541 20.6857 12.3874 19.7266 11.4746C18.7692 10.5635 17.4407 10.0566 15.9297 10.0566Z" fill="black" stroke="#743BC8" stroke-width="2"/>
</svg>
